<svg width="330" height="237" viewBox="0 0 330 237" fill="none" xmlns="http://www.w3.org/2000/svg">
<path opacity="0.1" d="M165 236.984C256.127 236.984 330 228.003 330 216.925C330 205.846 256.127 196.865 165 196.865C73.873 196.865 0 205.846 0 216.925C0 228.003 73.873 236.984 165 236.984Z" fill="#6C63FF"/>
<path d="M282.327 226.758C282.327 226.758 290.931 215.806 290.235 204.939C289.914 200.383 291.079 195.846 293.555 192.009C294.747 190.198 296.101 188.498 297.599 186.931" stroke="#535461" stroke-width="2" stroke-miterlimit="10"/>
<path d="M297.204 180.082C296.596 181.603 297.59 187.111 297.59 187.111C297.59 187.111 302.104 183.802 302.709 182.279C302.853 181.917 302.924 181.531 302.919 181.142C302.914 180.753 302.832 180.368 302.679 180.011C302.525 179.653 302.303 179.329 302.024 179.058C301.745 178.786 301.416 178.572 301.054 178.428C300.693 178.284 300.306 178.212 299.917 178.217C299.528 178.222 299.144 178.304 298.786 178.458C298.429 178.611 298.105 178.834 297.833 179.113C297.562 179.391 297.348 179.721 297.204 180.082Z" fill="#6C63FF"/>
<path d="M289.29 186.692C289.606 188.298 293.423 192.381 293.423 192.381C293.423 192.381 295.412 187.15 295.096 185.541C294.943 184.769 294.491 184.09 293.837 183.652C293.184 183.215 292.383 183.055 291.612 183.207C290.84 183.36 290.161 183.813 289.723 184.466C289.286 185.12 289.126 185.921 289.278 186.692H289.29Z" fill="#6C63FF"/>
<path d="M283.744 201.166C284.83 202.394 290.196 203.986 290.196 203.986C290.196 203.986 289.272 198.465 288.186 197.237C287.665 196.648 286.932 196.29 286.147 196.242C285.362 196.193 284.59 196.459 284.001 196.98C283.412 197.501 283.054 198.235 283.006 199.02C282.957 199.805 283.223 200.577 283.744 201.166Z" fill="#6C63FF"/>
<path d="M282.017 213.063C282.879 214.457 287.897 216.933 287.897 216.933C287.897 216.933 287.921 211.324 287.059 209.943C286.645 209.274 285.983 208.797 285.217 208.617C284.452 208.437 283.646 208.568 282.978 208.982C282.309 209.396 281.833 210.058 281.652 210.824C281.472 211.589 281.603 212.395 282.017 213.063Z" fill="#6C63FF"/>
<path d="M299.099 194.985C297.584 195.607 292.065 194.689 292.065 194.689C292.065 194.689 295.312 190.137 296.838 189.514C297.565 189.214 298.381 189.216 299.107 189.518C299.833 189.82 300.409 190.398 300.709 191.125C301.009 191.852 301.007 192.668 300.705 193.394C300.403 194.12 299.826 194.696 299.099 194.996V194.985Z" fill="#6C63FF"/>
<path d="M296.9 208.871C295.27 209.016 290.282 206.477 290.282 206.477C290.282 206.477 294.751 203.109 296.383 202.964C297.166 202.896 297.944 203.141 298.546 203.646C299.148 204.151 299.525 204.875 299.593 205.658C299.662 206.441 299.416 207.219 298.911 207.821C298.406 208.423 297.682 208.8 296.9 208.868V208.871Z" fill="#6C63FF"/>
<path d="M292.912 222.079C291.327 222.495 285.981 220.836 285.981 220.836C285.981 220.836 289.819 216.759 291.404 216.343C292.164 216.143 292.973 216.253 293.652 216.65C294.331 217.046 294.825 217.696 295.025 218.457C295.225 219.217 295.115 220.026 294.719 220.706C294.322 221.385 293.672 221.879 292.912 222.079Z" fill="#6C63FF"/>
<path opacity="0.25" d="M297.204 180.082C296.596 181.603 297.59 187.111 297.59 187.111C297.59 187.111 302.104 183.802 302.709 182.279C302.853 181.917 302.924 181.531 302.919 181.142C302.914 180.753 302.832 180.368 302.679 180.011C302.525 179.653 302.303 179.329 302.024 179.058C301.745 178.786 301.416 178.572 301.054 178.428C300.693 178.284 300.306 178.212 299.917 178.217C299.528 178.222 299.144 178.304 298.786 178.458C298.429 178.611 298.105 178.834 297.833 179.113C297.562 179.391 297.348 179.721 297.204 180.082Z" fill="black"/>
<path opacity="0.25" d="M289.29 186.692C289.606 188.298 293.423 192.381 293.423 192.381C293.423 192.381 295.412 187.15 295.096 185.541C294.943 184.769 294.491 184.09 293.837 183.652C293.184 183.215 292.383 183.055 291.612 183.207C290.84 183.36 290.161 183.813 289.723 184.466C289.286 185.12 289.126 185.921 289.278 186.692H289.29Z" fill="black"/>
<path opacity="0.25" d="M283.744 201.166C284.83 202.394 290.196 203.986 290.196 203.986C290.196 203.986 289.272 198.465 288.186 197.237C287.665 196.648 286.932 196.29 286.147 196.242C285.362 196.193 284.59 196.459 284.001 196.98C283.412 197.501 283.054 198.235 283.006 199.02C282.957 199.805 283.223 200.577 283.744 201.166Z" fill="black"/>
<path opacity="0.25" d="M282.017 213.063C282.879 214.457 287.897 216.933 287.897 216.933C287.897 216.933 287.921 211.324 287.059 209.943C286.645 209.274 285.983 208.797 285.217 208.617C284.452 208.437 283.646 208.568 282.978 208.982C282.309 209.396 281.833 210.058 281.652 210.824C281.472 211.589 281.603 212.395 282.017 213.063Z" fill="black"/>
<path opacity="0.25" d="M299.099 194.985C297.584 195.607 292.065 194.689 292.065 194.689C292.065 194.689 295.312 190.137 296.838 189.514C297.565 189.214 298.381 189.216 299.107 189.518C299.833 189.82 300.409 190.398 300.709 191.125C301.009 191.852 301.007 192.668 300.705 193.394C300.403 194.12 299.826 194.696 299.099 194.996V194.985Z" fill="black"/>
<path opacity="0.25" d="M296.9 208.871C295.27 209.016 290.282 206.477 290.282 206.477C290.282 206.477 294.751 203.109 296.383 202.964C297.166 202.896 297.944 203.141 298.546 203.646C299.148 204.151 299.525 204.875 299.593 205.658C299.662 206.441 299.416 207.219 298.911 207.821C298.406 208.423 297.682 208.8 296.9 208.868V208.871Z" fill="black"/>
<path opacity="0.25" d="M292.912 222.079C291.327 222.495 285.981 220.836 285.981 220.836C285.981 220.836 289.819 216.759 291.404 216.343C292.164 216.143 292.973 216.253 293.652 216.65C294.331 217.046 294.825 217.696 295.025 218.457C295.225 219.217 295.115 220.026 294.719 220.706C294.322 221.385 293.672 221.879 292.912 222.079Z" fill="black"/>
<path d="M282.398 226.3C282.398 226.3 294.704 219.776 298.47 209.562C300.02 205.268 302.92 201.592 306.735 199.085C308.558 197.911 310.484 196.906 312.491 196.083" stroke="#535461" stroke-width="2" stroke-miterlimit="10"/>
<path d="M314.911 189.659C313.73 190.804 312.417 196.242 312.417 196.242C312.417 196.242 317.883 195.044 319.055 193.901C319.334 193.63 319.556 193.306 319.709 192.949C319.863 192.592 319.944 192.208 319.95 191.819C319.955 191.43 319.883 191.044 319.739 190.683C319.595 190.321 319.381 189.992 319.11 189.714C318.838 189.435 318.515 189.213 318.158 189.059C317.8 188.906 317.416 188.824 317.028 188.819C316.242 188.809 315.485 189.111 314.923 189.659H314.911Z" fill="#6C63FF"/>
<path d="M304.999 192.493C304.639 194.09 306.475 199.377 306.475 199.377C306.475 199.377 310.412 195.398 310.773 193.801C310.946 193.034 310.808 192.229 310.388 191.565C309.968 190.9 309.302 190.429 308.535 190.255C307.768 190.082 306.964 190.22 306.299 190.64C305.635 191.06 305.164 191.726 304.99 192.493H304.999Z" fill="#6C63FF"/>
<path d="M294.066 203.481C294.559 205.042 298.821 208.673 298.821 208.673C298.821 208.673 300.211 203.25 299.707 201.689C299.589 201.318 299.399 200.973 299.149 200.675C298.898 200.377 298.591 200.132 298.245 199.952C297.9 199.773 297.522 199.664 297.134 199.63C296.746 199.597 296.356 199.64 295.985 199.758C295.613 199.876 295.269 200.065 294.971 200.316C294.673 200.567 294.428 200.874 294.249 201.22C294.069 201.565 293.96 201.943 293.927 202.331C293.893 202.719 293.937 203.109 294.054 203.481H294.066Z" fill="#6C63FF"/>
<path d="M287.664 213.657C287.888 215.28 291.474 219.578 291.474 219.578C291.474 219.578 293.762 214.468 293.541 212.848C293.488 212.462 293.359 212.09 293.162 211.754C292.966 211.418 292.705 211.124 292.394 210.889C292.084 210.654 291.731 210.482 291.354 210.384C290.977 210.285 290.585 210.262 290.199 210.315C289.814 210.368 289.442 210.496 289.106 210.693C288.77 210.89 288.476 211.151 288.241 211.461C288.006 211.771 287.834 212.125 287.736 212.502C287.637 212.878 287.614 213.271 287.667 213.657H287.664Z" fill="#6C63FF"/>
<path d="M310.607 204.05C308.969 204.009 304.3 200.921 304.3 200.921C304.3 200.921 309.126 198.081 310.761 198.123C311.547 198.143 312.292 198.475 312.834 199.045C313.375 199.615 313.668 200.377 313.648 201.163C313.627 201.949 313.295 202.695 312.725 203.237C312.155 203.778 311.393 204.071 310.607 204.05Z" fill="#6C63FF"/>
<path d="M302.971 215.856C301.422 215.327 297.888 210.985 297.888 210.985C297.888 210.985 303.34 209.716 304.89 210.247C305.258 210.373 305.598 210.57 305.89 210.828C306.182 211.085 306.42 211.397 306.592 211.747C306.763 212.096 306.864 212.476 306.888 212.865C306.913 213.253 306.861 213.643 306.735 214.011C306.609 214.379 306.411 214.719 306.154 215.011C305.897 215.303 305.584 215.542 305.235 215.713C304.886 215.884 304.506 215.985 304.117 216.01C303.729 216.034 303.34 215.982 302.971 215.856Z" fill="#6C63FF"/>
<path d="M293.972 226.312C292.357 226.052 288.142 222.368 288.142 222.368C288.142 222.368 293.302 220.198 294.931 220.458C295.707 220.583 296.402 221.012 296.862 221.649C297.322 222.287 297.51 223.081 297.385 223.857C297.26 224.634 296.831 225.329 296.194 225.789C295.557 226.249 294.762 226.437 293.986 226.312H293.972Z" fill="#6C63FF"/>
<path opacity="0.1" d="M188.065 28.0525C171.759 27.4857 156.231 22.2221 141.404 16.4626C126.578 10.7031 111.887 4.32064 95.9716 1.28588C85.738 -0.677258 74.0316 -0.954755 65.7845 4.53319C57.8533 9.79972 55.2853 18.9158 53.9069 27.3765C52.8679 33.7412 52.2569 40.4395 55.0876 46.3968C57.0623 50.5297 60.5659 54.0132 62.9893 57.9749C71.4193 71.7612 65.4598 88.7623 56.3243 102.227C52.0385 108.541 47.0678 114.564 43.7589 121.288C40.4501 128.013 38.9241 135.712 41.8167 142.57C44.6858 149.36 51.519 154.473 58.9218 158.063C73.9578 165.357 91.6857 167.444 108.956 168.625C147.204 171.244 185.656 170.101 224.004 168.974C238.199 168.554 252.453 168.129 266.415 165.936C274.169 164.717 282.174 162.78 287.8 158.11C294.946 152.182 296.717 142.142 291.932 134.709C283.9 122.239 261.695 119.142 256.081 105.76C252.993 98.395 256.166 90.1911 260.656 83.36C270.287 68.7028 286.433 55.8465 287.286 39.0963C287.876 27.5831 280.107 16.07 268.1 10.6263C255.52 4.92286 238.075 5.64022 228.795 15.084C219.255 24.8111 202.46 28.5514 188.065 28.0525Z" fill="#6C63FF"/>
<path d="M175.036 93.4266H167.695C167.7 92.8603 167.735 92.2946 167.801 91.7321C168.031 89.7306 168.74 86.4833 170.936 84.96C172.987 83.5371 175.659 85.6833 174.611 87.9534L174.584 88.0154C174.192 88.8361 174.18 89.8576 174.31 90.7934C174.447 91.6966 174.691 92.5804 175.036 93.4266Z" fill="#6C63FF"/>
<path opacity="0.1" d="M175.036 93.4266H167.695C167.7 92.8603 167.735 92.2946 167.801 91.7321C169.873 90.9553 172.088 90.6351 174.295 90.7934C174.437 91.6972 174.686 92.5811 175.036 93.4266Z" fill="black"/>
<path d="M179.797 101.2C177.893 102.749 175.231 102.773 172.506 102.109C166.927 100.745 161.104 96.4762 161.104 96.4762C161.5 96.0363 161.926 95.624 162.379 95.2422C164.675 93.2702 169.938 89.7838 176.984 91.5166C178.707 91.9124 180.225 92.9272 181.249 94.3684C182.415 96.0747 183.023 98.5751 179.797 101.2Z" fill="#6C63FF"/>
<path opacity="0.1" d="M177.554 98.091C177.554 98.091 173.309 94.4746 167.462 99.2718L177.554 98.091Z" fill="black"/>
<path d="M58.1898 128.557C58.1898 128.557 44.5116 118.029 43.8239 127.573C43.1361 137.118 46.5778 146.074 49.5295 146.86C52.4812 147.645 58.1898 128.557 58.1898 128.557Z" fill="#6C63FF"/>
<path opacity="0.2" d="M58.1898 128.557C58.1898 128.557 44.5116 118.029 43.8239 127.573C43.1361 137.118 46.5778 146.074 49.5295 146.86C52.4812 147.645 58.1898 128.557 58.1898 128.557Z" fill="black"/>
<path opacity="0.1" d="M49.2344 131.904C49.2344 131.904 49.5561 140.687 52.2864 139.284C55.0167 137.882 51.0054 132.297 49.2344 131.904Z" fill="black"/>
<path d="M91.7979 203.401C91.4762 204.753 90.9801 206.058 90.322 207.283C90.1538 207.602 89.9708 207.93 89.7701 208.263C86.5497 213.618 79.1056 215.841 79.1056 214.66C79.1056 213.479 78.3706 210.427 76.4992 211.313C74.6278 212.198 71.7765 212.003 71.7765 212.003C66.6258 211.611 67.4965 206.533 69.2026 202.232C69.77 200.818 70.4185 199.438 71.1448 198.099C71.7883 196.918 72.2694 196.145 72.2694 196.145L91.9484 199.295C91.9484 199.295 92.3882 200.847 91.7979 203.401Z" fill="#6C63FF"/>
<path opacity="0.1" d="M172.506 102.109C166.927 100.745 161.104 96.4762 161.104 96.4762C161.5 96.0363 161.926 95.624 162.379 95.2422C163.229 95.6909 164.083 96.1681 164.941 96.6739C167.631 98.2396 170.164 100.06 172.506 102.109Z" fill="black"/>
<path opacity="0.1" d="M91.7979 203.401C86.4582 202.923 78.7248 201.609 71.136 198.114C71.7794 196.933 72.2606 196.16 72.2606 196.16L91.9396 199.309C91.9396 199.309 92.3882 200.847 91.7979 203.401Z" fill="black"/>
<path d="M174.682 177.857C174.682 177.857 174.327 184.165 170.768 191.294C168.027 196.901 163.799 201.648 158.545 205.016C158.545 205.016 155.398 207.575 155.2 200.49C155.2 200.49 153.822 199.014 144.377 205.465C144.377 205.465 138.677 208.948 140.244 194.415C140.244 194.415 140.244 194.397 140.244 194.388C140.244 194.379 140.102 194.48 139.843 194.636H139.825C139.152 195.05 137.723 195.897 136.023 196.75C132.909 198.315 128.874 199.906 126.873 198.902C126.413 202.58 125.279 206.142 123.526 209.409C121.542 213.019 118.413 216.55 113.514 218.144C112.278 218.54 110.957 218.587 109.697 218.28C108.436 217.972 107.285 217.322 106.37 216.402L105.81 215.841C105.81 215.841 101.479 218.793 99.3158 217.807C97.1523 216.821 95.3783 214.07 98.33 208.951C98.33 208.951 98.4864 208.526 98.6783 207.903C99.1594 206.324 99.859 203.475 98.7255 203.047C98.7255 203.047 52.8738 205.408 46.7756 164.67C40.6774 123.931 81.0153 108.975 92.4266 110.549C92.4266 110.549 122.732 72.3693 164.646 96.9691C206.56 121.569 174.682 177.857 174.682 177.857Z" fill="#6C63FF"/>
<path opacity="0.1" d="M92.4266 110.549C92.4266 110.549 142.375 110.354 138.948 175.102" stroke="black" stroke-miterlimit="10"/>
<path opacity="0.2" d="M90.322 207.283C90.1538 207.602 89.9708 207.93 89.77 208.263C86.5497 213.618 79.1055 215.841 79.1055 214.66C79.1055 213.479 78.3706 210.427 76.4992 211.313C74.6278 212.198 71.7765 212.003 71.7765 212.003C66.6258 211.611 67.4965 206.533 69.2026 202.232C74.0316 204.656 82.7657 208.266 90.322 207.283Z" fill="black"/>
<path opacity="0.2" d="M123.526 209.408C121.542 213.019 118.413 216.55 113.514 218.144C112.278 218.54 110.957 218.587 109.697 218.28C108.436 217.972 107.285 217.322 106.37 216.402L105.81 215.841C105.81 215.841 101.479 218.793 99.3158 217.807C97.1522 216.821 95.3783 214.07 98.33 208.951C98.33 208.951 98.4864 208.526 98.6783 207.903C102.536 209.264 112.755 212.16 123.526 209.408Z" fill="black"/>
<path opacity="0.1" d="M140.244 194.388C158.052 185.139 161.104 177.759 161.104 177.759L140.244 194.388Z" fill="black"/>
<path opacity="0.2" d="M170.768 191.294C168.027 196.901 163.799 201.648 158.545 205.016C158.545 205.016 155.398 207.575 155.2 200.49C155.2 200.49 153.822 199.014 144.376 205.464C144.376 205.464 138.677 208.948 140.244 194.415L144.967 191.796C155.144 197.455 165.369 194.004 170.768 191.294Z" fill="black"/>
<path d="M97.7426 116.258C97.7426 116.258 107.778 100.907 115.352 105.728C122.926 110.549 113.977 128.557 113.977 128.557C113.977 128.557 99.1181 128.261 97.7426 116.258Z" fill="#6C63FF"/>
<path opacity="0.2" d="M97.7426 116.258C97.7426 116.258 107.778 100.907 115.352 105.728C122.926 110.549 113.977 128.557 113.977 128.557C113.977 128.557 99.1181 128.261 97.7426 116.258Z" fill="black"/>
<path opacity="0.1" d="M114.074 112.025C114.074 112.025 100.889 118.422 104.924 122.162C108.959 125.903 114.074 112.025 114.074 112.025Z" fill="black"/>
<path opacity="0.1" d="M82.2937 174.319C92.2037 172.031 98.7013 163.522 96.8065 155.314C94.9117 147.105 85.342 142.306 75.432 144.594C65.522 146.882 59.0244 155.392 60.9192 163.6C62.814 171.808 72.3837 176.607 82.2937 174.319Z" fill="black"/>
<path d="M82.2937 173.729C92.2037 171.441 98.7013 162.932 96.8066 154.723C94.9118 146.515 85.3421 141.716 75.4321 144.004C65.522 146.292 59.0244 154.801 60.9192 163.01C62.814 171.218 72.3837 176.017 82.2937 173.729Z" fill="#6C63FF"/>
<path opacity="0.2" d="M82.2937 173.729C92.2037 171.441 98.7013 162.932 96.8066 154.723C94.9118 146.515 85.3421 141.716 75.4321 144.004C65.522 146.292 59.0244 154.801 60.9192 163.01C62.814 171.218 72.3837 176.017 82.2937 173.729Z" fill="black"/>
<path opacity="0.1" d="M71.0769 158.863C71.0769 158.863 71.2747 164.572 72.9483 162.901C74.6219 161.23 73.0457 158.857 71.0769 158.863Z" fill="black"/>
<path opacity="0.1" d="M80.6227 154.517C80.6227 154.517 80.8175 160.227 82.4912 158.556C84.1648 156.885 82.5886 154.5 80.6227 154.517Z" fill="black"/>
<path opacity="0.1" d="M96.7744 187.206C96.7744 187.206 100.889 191.241 105.907 185.632L96.7744 187.206Z" fill="black"/>
<path opacity="0.15" d="M114.859 100.609C117.123 100.019 125.486 103.561 125.486 103.561C129.09 99.9567 134.341 97.7957 138.948 96.5116L139.911 92.1484C121.637 92.358 114.859 100.609 114.859 100.609Z" fill="black"/>
<path opacity="0.3" d="M139.949 92.1484L139.04 96.485C142.299 95.5885 145.634 94.9956 149.002 94.7137C144.672 92.541 139.949 92.1484 139.949 92.1484Z" fill="black"/>
<path opacity="0.15" d="M139.911 92.1484L138.954 96.5116L139.046 96.485L139.955 92.1484H139.911Z" fill="black"/>
<g opacity="0.1">
<path opacity="0.1" d="M100.396 210.799C100.396 210.799 100.553 210.374 100.744 209.751C101.226 208.172 101.925 205.323 100.792 204.895C100.792 204.895 100.266 204.921 99.3158 204.918C99.2123 205.959 98.9976 206.985 98.6753 207.98C98.4835 208.603 98.327 209.028 98.327 209.028C95.3753 214.147 97.1463 216.901 99.3129 217.884L99.428 217.925C98.5573 216.434 98.4864 214.111 100.396 210.799Z" fill="white"/>
<path opacity="0.1" d="M48.8418 166.518C42.7406 125.779 84.3802 109.223 95.7915 110.809L92.4266 110.637C81.0153 109.064 40.6744 124.019 46.7756 164.758C48.6942 177.567 54.5445 186.114 61.661 191.814C55.492 186.146 50.5715 178.063 48.8418 166.518Z" fill="white"/>
<path opacity="0.1" d="M142.307 196.263C142.307 196.263 142.307 196.245 142.307 196.236C142.307 196.227 142.166 196.328 141.906 196.484H141.888C141.49 196.726 140.826 197.125 139.999 197.585C139.704 204.301 141.442 205.757 142.809 205.884C142.115 204.316 141.752 201.438 142.307 196.263Z" fill="white"/>
<path opacity="0.1" d="M157.267 202.338C157.267 202.338 156.912 201.963 155.348 202.427C155.755 205.355 156.883 205.674 157.686 205.5C157.41 204.468 157.27 203.406 157.267 202.338Z" fill="white"/>
</g>
<path opacity="0.1" d="M98.7255 203.047C98.7255 203.047 124.308 201.473 126.864 198.914L98.7255 203.047Z" fill="black"/>
<path d="M160.147 207.93C166.27 207.93 171.234 202.66 171.234 196.16C171.234 189.659 166.27 184.389 160.147 184.389C154.024 184.389 149.061 189.659 149.061 196.16C149.061 202.66 154.024 207.93 160.147 207.93Z" fill="#FBD56F"/>
<path opacity="0.1" d="M160.147 207.93C166.27 207.93 171.234 202.66 171.234 196.16C171.234 189.659 166.27 184.389 160.147 184.389C154.024 184.389 149.061 189.659 149.061 196.16C149.061 202.66 154.024 207.93 160.147 207.93Z" fill="black"/>
<path d="M162.06 207.93C168.183 207.93 173.147 202.778 173.147 196.422C173.147 190.067 168.183 184.915 162.06 184.915C155.937 184.915 150.974 190.067 150.974 196.422C150.974 202.778 155.937 207.93 162.06 207.93Z" fill="#FBD56F"/>
<path d="M166.553 206.849L165.398 206.208C165.398 206.208 164.858 208.458 165.035 210.064C165.052 210.225 165.118 210.378 165.223 210.501C165.328 210.625 165.469 210.713 165.626 210.755C168.282 211.413 180.921 214.22 189.617 210.265C189.743 210.207 189.852 210.118 189.933 210.006C190.014 209.893 190.064 209.762 190.078 209.624C190.187 208.638 189.809 206.604 189.659 206.208C189.343 205.355 166.553 206.849 166.553 206.849Z" fill="#FBD56F"/>
<path opacity="0.1" d="M166.553 206.849L165.398 206.208C165.398 206.208 164.858 208.458 165.035 210.064C165.052 210.225 165.118 210.378 165.223 210.501C165.328 210.625 165.469 210.713 165.626 210.755C168.282 211.413 180.921 214.22 189.617 210.265C189.743 210.207 189.852 210.118 189.933 210.006C190.014 209.893 190.064 209.762 190.078 209.624C190.187 208.638 189.809 206.604 189.659 206.208C189.343 205.355 166.553 206.849 166.553 206.849Z" fill="black"/>
<path d="M177.533 208.945C184.235 208.945 189.667 207.72 189.667 206.208C189.667 204.697 184.235 203.472 177.533 203.472C170.831 203.472 165.398 204.697 165.398 206.208C165.398 207.72 170.831 208.945 177.533 208.945Z" fill="#FBD56F"/>
<path d="M171.199 202.814L170.047 202.173C170.047 202.173 169.507 204.422 169.684 206.028C169.701 206.19 169.766 206.342 169.872 206.465C169.977 206.588 170.118 206.675 170.275 206.716C172.931 207.377 185.57 210.185 194.266 206.229C194.392 206.171 194.5 206.082 194.581 205.97C194.662 205.857 194.712 205.726 194.727 205.588C194.833 204.602 194.455 202.568 194.305 202.173C193.977 201.32 171.199 202.814 171.199 202.814Z" fill="#FBD56F"/>
<path opacity="0.1" d="M171.199 202.814L170.047 202.173C170.047 202.173 169.507 204.422 169.684 206.028C169.701 206.19 169.766 206.342 169.872 206.465C169.977 206.588 170.118 206.675 170.275 206.716C172.931 207.377 185.57 210.185 194.266 206.229C194.392 206.171 194.5 206.082 194.581 205.97C194.662 205.857 194.712 205.726 194.727 205.588C194.833 204.602 194.455 202.568 194.305 202.173C193.977 201.32 171.199 202.814 171.199 202.814Z" fill="black"/>
<path d="M182.167 204.91C188.869 204.91 194.302 203.684 194.302 202.173C194.302 200.662 188.869 199.436 182.167 199.436C175.465 199.436 170.033 200.662 170.033 202.173C170.033 203.684 175.465 204.91 182.167 204.91Z" fill="#FBD56F"/>
<path d="M175.287 197.509L174.133 196.868C174.133 196.868 173.592 199.117 173.77 200.723C173.786 200.885 173.852 201.037 173.957 201.161C174.063 201.284 174.203 201.373 174.36 201.414C177.016 202.073 189.659 204.88 198.351 200.924C198.477 200.867 198.586 200.777 198.668 200.665C198.749 200.553 198.8 200.421 198.815 200.284C198.921 199.298 198.543 197.264 198.393 196.868C198.077 196.015 175.287 197.509 175.287 197.509Z" fill="#FBD56F"/>
<path opacity="0.1" d="M175.287 197.509L174.133 196.868C174.133 196.868 173.592 199.117 173.77 200.723C173.786 200.885 173.852 201.037 173.957 201.161C174.063 201.284 174.203 201.373 174.36 201.414C177.016 202.073 189.659 204.88 198.351 200.924C198.477 200.867 198.586 200.777 198.668 200.665C198.749 200.553 198.8 200.421 198.815 200.284C198.921 199.298 198.543 197.264 198.393 196.868C198.077 196.015 175.287 197.509 175.287 197.509Z" fill="black"/>
<path d="M186.267 199.605C192.969 199.605 198.401 198.379 198.401 196.868C198.401 195.357 192.969 194.131 186.267 194.131C179.565 194.131 174.133 195.357 174.133 196.868C174.133 198.379 179.565 199.605 186.267 199.605Z" fill="#FBD56F"/>
<path d="M170.747 191.991L169.593 191.348C169.593 191.348 169.056 193.6 169.23 195.203C169.247 195.364 169.312 195.517 169.418 195.64C169.523 195.763 169.663 195.852 169.82 195.894C172.477 196.552 185.116 199.36 193.809 195.407C193.935 195.349 194.044 195.26 194.125 195.148C194.207 195.036 194.257 194.904 194.272 194.766C194.378 193.78 194 191.746 193.85 191.348C193.537 190.491 170.747 191.991 170.747 191.991Z" fill="#FBD56F"/>
<path opacity="0.1" d="M170.747 191.991L169.593 191.348C169.593 191.348 169.056 193.6 169.23 195.203C169.247 195.364 169.312 195.517 169.418 195.64C169.523 195.763 169.663 195.852 169.82 195.894C172.477 196.552 185.116 199.36 193.809 195.407C193.935 195.349 194.044 195.26 194.125 195.148C194.207 195.036 194.257 194.904 194.272 194.766C194.378 193.78 194 191.746 193.85 191.348C193.537 190.491 170.747 191.991 170.747 191.991Z" fill="black"/>
<path d="M181.727 194.081C188.429 194.081 193.862 192.856 193.862 191.345C193.862 189.833 188.429 188.608 181.727 188.608C175.026 188.608 169.593 189.833 169.593 191.345C169.593 192.856 175.026 194.081 181.727 194.081Z" fill="#FBD56F"/>
<path d="M180.957 187.563L179.806 186.919C179.806 186.919 179.266 189.172 179.443 190.775C179.459 190.936 179.524 191.089 179.63 191.213C179.735 191.336 179.876 191.424 180.033 191.466C182.69 192.124 195.329 194.931 204.021 190.979C204.147 190.921 204.256 190.832 204.338 190.719C204.419 190.607 204.469 190.476 204.485 190.338C204.591 189.352 204.213 187.315 204.063 186.919C203.747 186.06 180.957 187.563 180.957 187.563Z" fill="#FBD56F"/>
<path opacity="0.1" d="M180.957 187.563L179.806 186.919C179.806 186.919 179.266 189.172 179.443 190.775C179.459 190.936 179.524 191.089 179.63 191.213C179.735 191.336 179.876 191.424 180.033 191.466C182.69 192.124 195.329 194.931 204.021 190.979C204.147 190.921 204.256 190.832 204.338 190.719C204.419 190.607 204.469 190.476 204.485 190.338C204.591 189.352 204.213 187.315 204.063 186.919C203.747 186.06 180.957 187.563 180.957 187.563Z" fill="black"/>
<path d="M191.937 189.65C198.639 189.65 204.072 188.425 204.072 186.914C204.072 185.402 198.639 184.177 191.937 184.177C185.236 184.177 179.803 185.402 179.803 186.914C179.803 188.425 185.236 189.65 191.937 189.65Z" fill="#FBD56F"/>
<path d="M174.059 184.578L172.905 183.935C172.905 183.935 172.367 186.187 172.542 187.79C172.559 187.952 172.624 188.104 172.73 188.227C172.835 188.351 172.975 188.439 173.132 188.481C175.788 189.139 188.428 191.947 197.12 187.994C197.247 187.937 197.356 187.848 197.437 187.735C197.518 187.623 197.569 187.491 197.584 187.353C197.69 186.367 197.312 184.33 197.162 183.935C196.849 183.082 174.059 184.578 174.059 184.578Z" fill="#FBD56F"/>
<path opacity="0.1" d="M174.059 184.578L172.905 183.935C172.905 183.935 172.367 186.187 172.542 187.79C172.559 187.952 172.624 188.104 172.73 188.227C172.835 188.351 172.975 188.439 173.132 188.481C175.788 189.139 188.428 191.947 197.12 187.994C197.247 187.937 197.356 187.848 197.437 187.735C197.518 187.623 197.569 187.491 197.584 187.353C197.69 186.367 197.312 184.33 197.162 183.935C196.849 183.082 174.059 184.578 174.059 184.578Z" fill="black"/>
<path d="M185.039 186.671C191.741 186.671 197.173 185.446 197.173 183.935C197.173 182.424 191.741 181.198 185.039 181.198C178.337 181.198 172.905 182.424 172.905 183.935C172.905 185.446 178.337 186.671 185.039 186.671Z" fill="#FBD56F"/>
<path d="M178.663 178.828L177.512 178.184C177.512 178.184 176.972 180.437 177.149 182.04C177.166 182.201 177.231 182.354 177.336 182.477C177.442 182.601 177.582 182.689 177.74 182.73C180.396 183.389 193.035 186.196 201.731 182.243C201.857 182.186 201.966 182.097 202.046 181.984C202.127 181.872 202.177 181.74 202.191 181.603C202.298 180.617 201.92 178.583 201.769 178.184C201.456 177.331 178.663 178.828 178.663 178.828Z" fill="#FBD56F"/>
<path opacity="0.1" d="M178.663 178.828L177.512 178.184C177.512 178.184 176.972 180.437 177.149 182.04C177.166 182.201 177.231 182.354 177.336 182.477C177.442 182.601 177.582 182.689 177.74 182.73C180.396 183.389 193.035 186.196 201.731 182.243C201.857 182.186 201.966 182.097 202.046 181.984C202.127 181.872 202.177 181.74 202.191 181.603C202.298 180.617 201.92 178.583 201.769 178.184C201.456 177.331 178.663 178.828 178.663 178.828Z" fill="black"/>
<path d="M189.647 180.921C196.348 180.921 201.781 179.696 201.781 178.184C201.781 176.673 196.348 175.448 189.647 175.448C182.945 175.448 177.512 176.673 177.512 178.184C177.512 179.696 182.945 180.921 189.647 180.921Z" fill="#FBD56F"/>
<path d="M180.939 172.003L179.785 171.359C179.785 171.359 179.248 173.611 179.422 175.214C179.439 175.376 179.505 175.528 179.61 175.651C179.715 175.775 179.856 175.863 180.012 175.905C182.669 176.564 195.308 179.371 204.001 175.418C204.127 175.361 204.236 175.272 204.318 175.159C204.399 175.047 204.449 174.915 204.464 174.777C204.57 173.791 204.193 171.757 204.042 171.359C203.726 170.506 180.939 172.003 180.939 172.003Z" fill="#FBD56F"/>
<path opacity="0.1" d="M180.939 172.003L179.785 171.359C179.785 171.359 179.248 173.611 179.422 175.214C179.439 175.376 179.505 175.528 179.61 175.651C179.715 175.775 179.856 175.863 180.012 175.905C182.669 176.564 195.308 179.371 204.001 175.418C204.127 175.361 204.236 175.272 204.318 175.159C204.399 175.047 204.449 174.915 204.464 174.777C204.57 173.791 204.193 171.757 204.042 171.359C203.726 170.506 180.939 172.003 180.939 172.003Z" fill="black"/>
<path d="M191.917 174.096C198.618 174.096 204.051 172.87 204.051 171.359C204.051 169.848 198.618 168.622 191.917 168.622C185.215 168.622 179.782 169.848 179.782 171.359C179.782 172.87 185.215 174.096 191.917 174.096Z" fill="#FBD56F"/>
<path d="M201.421 208.434L200.267 207.791C200.267 207.791 199.727 210.043 199.904 211.646C199.921 211.808 199.986 211.96 200.091 212.084C200.197 212.207 200.337 212.295 200.494 212.337C203.151 212.995 215.79 215.803 224.486 211.85C224.612 211.792 224.72 211.702 224.801 211.589C224.882 211.476 224.932 211.344 224.946 211.206C225.055 210.22 224.677 208.186 224.527 207.791C224.211 206.938 201.421 208.434 201.421 208.434Z" fill="#FBD56F"/>
<path opacity="0.1" d="M201.421 208.434L200.267 207.791C200.267 207.791 199.727 210.043 199.904 211.646C199.921 211.808 199.986 211.96 200.091 212.084C200.197 212.207 200.337 212.295 200.494 212.337C203.151 212.995 215.79 215.803 224.486 211.85C224.612 211.792 224.72 211.702 224.801 211.589C224.882 211.476 224.932 211.344 224.946 211.206C225.055 210.22 224.677 208.186 224.527 207.791C224.211 206.938 201.421 208.434 201.421 208.434Z" fill="black"/>
<path d="M212.401 210.527C219.103 210.527 224.536 209.302 224.536 207.791C224.536 206.279 219.103 205.054 212.401 205.054C205.7 205.054 200.267 206.279 200.267 207.791C200.267 209.302 205.7 210.527 212.401 210.527Z" fill="#FBD56F"/>
<path d="M205.518 203.129L204.364 202.486C204.364 202.486 203.827 204.738 204.001 206.341C204.018 206.503 204.084 206.655 204.189 206.778C204.294 206.902 204.435 206.99 204.591 207.032C207.248 207.69 219.887 210.498 228.58 206.545C228.706 206.488 228.815 206.399 228.896 206.286C228.978 206.174 229.028 206.042 229.043 205.904C229.149 204.918 228.771 202.881 228.621 202.486C228.308 201.633 205.518 203.129 205.518 203.129Z" fill="#FBD56F"/>
<path opacity="0.1" d="M205.518 203.129L204.364 202.486C204.364 202.486 203.827 204.738 204.001 206.341C204.018 206.503 204.084 206.655 204.189 206.778C204.294 206.902 204.435 206.99 204.591 207.032C207.248 207.69 219.887 210.498 228.58 206.545C228.706 206.488 228.815 206.399 228.896 206.286C228.978 206.174 229.028 206.042 229.043 205.904C229.149 204.918 228.771 202.881 228.621 202.486C228.308 201.633 205.518 203.129 205.518 203.129Z" fill="black"/>
<path d="M216.498 205.222C223.2 205.222 228.633 203.997 228.633 202.486C228.633 200.974 223.2 199.749 216.498 199.749C209.797 199.749 204.364 200.974 204.364 202.486C204.364 203.997 209.797 205.222 216.498 205.222Z" fill="#FBD56F"/>
<path d="M200.978 197.6L199.827 196.96C199.827 196.96 199.287 199.209 199.464 200.815C199.481 200.976 199.546 201.128 199.651 201.251C199.757 201.374 199.898 201.462 200.054 201.503C202.711 202.164 215.35 204.971 224.046 201.016C224.172 200.959 224.281 200.869 224.362 200.757C224.442 200.644 224.492 200.513 224.506 200.375C224.613 199.389 224.235 197.355 224.084 196.96C223.771 196.124 200.978 197.6 200.978 197.6Z" fill="#FBD56F"/>
<path opacity="0.1" d="M200.978 197.6L199.827 196.96C199.827 196.96 199.287 199.209 199.464 200.815C199.481 200.976 199.546 201.128 199.651 201.251C199.757 201.374 199.898 201.462 200.054 201.503C202.711 202.164 215.35 204.971 224.046 201.016C224.172 200.959 224.281 200.869 224.362 200.757C224.442 200.644 224.492 200.513 224.506 200.375C224.613 199.389 224.235 197.355 224.084 196.96C223.771 196.124 200.978 197.6 200.978 197.6Z" fill="black"/>
<path d="M211.962 199.702C218.663 199.702 224.096 198.477 224.096 196.965C224.096 195.454 218.663 194.229 211.962 194.229C205.26 194.229 199.827 195.454 199.827 196.965C199.827 198.477 205.26 199.702 211.962 199.702Z" fill="#FBD56F"/>
<path d="M211.191 193.172L210.037 192.531C210.037 192.531 209.497 194.781 209.674 196.369C209.69 196.531 209.756 196.683 209.861 196.807C209.967 196.93 210.107 197.019 210.264 197.06C212.921 197.721 225.56 200.526 234.256 196.573C234.382 196.516 234.491 196.426 234.571 196.314C234.652 196.202 234.702 196.07 234.716 195.932C234.822 194.946 234.448 192.912 234.297 192.517C233.981 191.696 211.191 193.172 211.191 193.172Z" fill="#FBD56F"/>
<path opacity="0.1" d="M211.191 193.172L210.037 192.531C210.037 192.531 209.497 194.781 209.674 196.369C209.69 196.531 209.756 196.683 209.861 196.807C209.967 196.93 210.107 197.019 210.264 197.06C212.921 197.721 225.56 200.526 234.256 196.573C234.382 196.516 234.491 196.426 234.571 196.314C234.652 196.202 234.702 196.07 234.716 195.932C234.822 194.946 234.448 192.912 234.297 192.517C233.981 191.696 211.191 193.172 211.191 193.172Z" fill="black"/>
<path d="M222.171 195.271C228.873 195.271 234.306 194.046 234.306 192.534C234.306 191.023 228.873 189.798 222.171 189.798C215.47 189.798 210.037 191.023 210.037 192.534C210.037 194.046 215.47 195.271 222.171 195.271Z" fill="#FBD56F"/>
<path d="M204.29 190.196L203.139 189.556C203.139 189.556 202.599 191.805 202.776 193.411C202.793 193.572 202.858 193.724 202.964 193.847C203.069 193.97 203.21 194.058 203.366 194.099C206.023 194.76 218.662 197.565 227.358 193.612C227.484 193.555 227.593 193.465 227.673 193.353C227.754 193.241 227.804 193.109 227.818 192.971C227.924 191.985 227.547 189.951 227.396 189.556C227.083 188.703 204.29 190.196 204.29 190.196Z" fill="#FBD56F"/>
<path opacity="0.1" d="M204.29 190.196L203.139 189.556C203.139 189.556 202.599 191.805 202.776 193.411C202.793 193.572 202.858 193.724 202.964 193.847C203.069 193.97 203.21 194.058 203.366 194.099C206.023 194.76 218.662 197.565 227.358 193.612C227.484 193.555 227.593 193.465 227.673 193.353C227.754 193.241 227.804 193.109 227.818 192.971C227.924 191.985 227.547 189.951 227.396 189.556C227.083 188.703 204.29 190.196 204.29 190.196Z" fill="black"/>
<path d="M215.273 192.292C221.975 192.292 227.408 191.067 227.408 189.556C227.408 188.044 221.975 186.819 215.273 186.819C208.572 186.819 203.139 188.044 203.139 189.556C203.139 191.067 208.572 192.292 215.273 192.292Z" fill="#FBD56F"/>
<path d="M208.898 184.446L207.744 183.805C207.744 183.805 207.203 186.054 207.381 187.66C207.397 187.822 207.463 187.974 207.568 188.098C207.674 188.221 207.814 188.31 207.971 188.351C210.627 189.01 223.267 191.817 231.959 187.861C232.085 187.804 232.194 187.714 232.276 187.602C232.357 187.49 232.408 187.358 232.423 187.221C232.529 186.235 232.151 184.201 232.001 183.805C231.688 182.952 208.898 184.446 208.898 184.446Z" fill="#FBD56F"/>
<path opacity="0.1" d="M208.898 184.446L207.744 183.805C207.744 183.805 207.203 186.054 207.381 187.66C207.397 187.822 207.463 187.974 207.568 188.098C207.674 188.221 207.814 188.31 207.971 188.351C210.627 189.01 223.267 191.817 231.959 187.861C232.085 187.804 232.194 187.714 232.276 187.602C232.357 187.49 232.408 187.358 232.423 187.221C232.529 186.235 232.151 184.201 232.001 183.805C231.688 182.952 208.898 184.446 208.898 184.446Z" fill="black"/>
<path d="M219.878 186.542C226.58 186.542 232.012 185.316 232.012 183.805C232.012 182.294 226.58 181.068 219.878 181.068C213.176 181.068 207.744 182.294 207.744 183.805C207.744 185.316 213.176 186.542 219.878 186.542Z" fill="#FBD56F"/>
<path d="M211.168 177.62L210.016 176.98C210.016 176.98 209.476 179.229 209.653 180.835C209.67 180.997 209.735 181.149 209.841 181.273C209.946 181.396 210.087 181.484 210.244 181.526C212.9 182.184 225.539 184.992 234.235 181.036C234.361 180.979 234.47 180.889 234.551 180.777C234.632 180.665 234.682 180.533 234.696 180.395C234.802 179.409 234.424 177.375 234.273 176.98C233.961 176.127 211.168 177.62 211.168 177.62Z" fill="#FBD56F"/>
<path opacity="0.1" d="M211.168 177.62L210.016 176.98C210.016 176.98 209.476 179.229 209.653 180.835C209.67 180.997 209.735 181.149 209.841 181.273C209.946 181.396 210.087 181.484 210.244 181.526C212.9 182.184 225.539 184.992 234.235 181.036C234.361 180.979 234.47 180.889 234.551 180.777C234.632 180.665 234.682 180.533 234.696 180.395C234.802 179.409 234.424 177.375 234.273 176.98C233.961 176.127 211.168 177.62 211.168 177.62Z" fill="black"/>
<path d="M222.151 179.716C228.852 179.716 234.285 178.491 234.285 176.98C234.285 175.468 228.852 174.243 222.151 174.243C215.449 174.243 210.016 175.468 210.016 176.98C210.016 178.491 215.449 179.716 222.151 179.716Z" fill="#FBD56F"/>
<path d="M120.606 92.8008C120.606 86.4479 125.568 81.2876 131.693 81.2876C132.293 81.2882 132.893 81.3386 133.485 81.4382C132.3 80.9907 131.044 80.7617 129.777 80.7621C123.656 80.7621 118.694 86.0316 118.694 92.5321C118.694 97.4149 121.495 101.601 125.483 103.384C125.675 103.216 125.914 103.015 126.197 102.794C124.479 101.755 123.061 100.288 122.081 98.5364C121.101 96.7846 120.593 94.8081 120.606 92.8008Z" fill="#FBD56F"/>
<path opacity="0.1" d="M120.606 92.8008C120.606 86.4479 125.568 81.2876 131.693 81.2876C132.293 81.2882 132.893 81.3386 133.485 81.4382C132.3 80.9907 131.044 80.7617 129.777 80.7621C123.656 80.7621 118.694 86.0316 118.694 92.5321C118.694 97.4149 121.495 101.601 125.483 103.384C125.675 103.216 125.914 103.015 126.197 102.794C124.479 101.755 123.061 100.288 122.081 98.5364C121.101 96.7846 120.593 94.8081 120.606 92.8008Z" fill="black"/>
<path d="M140.864 92.5499C140.863 93.8333 140.664 95.1089 140.274 96.3315C140.947 96.1691 141.649 96.0363 142.372 95.8828C142.641 94.8775 142.777 93.8414 142.777 92.8008C142.777 87.0796 138.753 82.3386 133.485 81.4471C137.785 83.0766 140.864 87.428 140.864 92.5499Z" fill="#FBD56F"/>
<path d="M120.606 92.8008C120.593 94.8089 121.101 96.7861 122.081 98.5385C123.062 100.291 124.481 101.758 126.2 102.797C128.287 101.138 132.888 98.088 140.277 96.3226C140.667 95.1 140.866 93.8244 140.867 92.541C140.867 87.4191 137.788 83.0677 133.488 81.447C132.896 81.3475 132.296 81.2971 131.696 81.2965C125.568 81.3053 120.606 86.4567 120.606 92.8008Z" fill="#FBD56F"/>
<path d="M284.305 224.532C282.616 224.473 282.554 223.818 280.385 222.687C279.157 222.049 277.297 220.195 275.91 218.705L275.585 218.353H276.176C276.176 218.353 275.633 213.592 276.117 212.449C276.601 211.307 276.238 204.591 276.238 204.591C276.238 204.591 276.533 199.469 275.996 198.279C275.458 197.089 276.176 189.47 276.176 189.47C276.176 189.47 276.66 184.945 276.766 175.716C276.872 166.488 271.453 166.193 271.453 166.193C271.453 166.193 270.73 166.137 269.632 166.03L269.301 165.998C270.013 164.522 270.429 163.394 270.429 163.394C270.429 163.394 269.523 154.762 269.281 153.274C269.039 151.787 267.595 145.643 267.595 145.643C267.595 145.643 266.571 143.025 265.966 141.18C265.361 139.335 263.554 137.191 263.554 137.191C263.554 137.191 260.307 130.762 259.392 129.811C258.973 129.371 258.383 128.813 257.872 128.335L257.607 128.093C257.745 127.423 257.818 126.741 257.825 126.056C257.825 126.056 254.445 122.72 254.203 121.888C253.961 121.055 250.768 117.959 250.768 117.959C250.768 117.959 248.955 114.626 246.907 114.567C245.937 114.511 244.964 114.539 243.999 114.652C244.421 113.093 244.92 111.461 245.366 110.059C245.416 109.902 245.466 109.764 245.513 109.601C247.153 108.492 248.439 106.935 249.221 105.117C249.262 105.02 249.301 104.922 249.339 104.822H249.404C249.489 104.82 249.574 104.812 249.658 104.798C250.334 104.683 250.906 103.912 250.593 103.322C250.614 103.356 250.643 103.384 250.677 103.403C250.712 103.423 250.751 103.432 250.791 103.431C251.015 103.431 251.29 103.098 251.343 102.811C251.343 102.761 251.358 102.711 251.364 102.661C251.37 102.611 251.384 102.537 251.393 102.475C251.402 102.413 251.393 102.357 251.393 102.298C251.393 102.239 251.393 102.177 251.393 102.118C251.393 102.059 251.393 102.002 251.393 101.946C251.393 101.89 251.393 101.814 251.393 101.749C251.393 101.684 251.393 101.645 251.393 101.592C251.393 101.539 251.393 101.433 251.376 101.353C251.376 101.321 251.376 101.288 251.376 101.256C251.34 100.93 251.275 100.609 251.181 100.296C250.85 99.1891 250.151 98.091 250.419 96.9692V96.9337C250.644 96.0481 251.399 95.4282 251.86 94.6488C251.904 94.575 251.942 94.4983 251.981 94.4215C251.981 94.4067 251.995 94.392 252.001 94.3802C252.031 94.3211 252.054 94.2621 252.078 94.203L252.125 94.0879C252.146 94.0377 252.161 93.9846 252.178 93.9315C252.196 93.8783 252.211 93.837 252.223 93.7868C252.235 93.7366 252.246 93.6923 252.258 93.6451C252.27 93.5979 252.285 93.5329 252.296 93.4739C252.308 93.4148 252.296 93.3912 252.317 93.3499C252.338 93.3086 252.335 93.22 252.341 93.1551C252.347 93.0901 252.341 93.0842 252.341 93.0488C252.341 93.0134 252.341 92.9041 252.341 92.8303V92.7418C252.341 92.6621 252.341 92.5794 252.341 92.4997C252.341 92.4761 252.341 92.4525 252.341 92.4288C252.341 92.3432 252.341 92.2576 252.317 92.172C252.317 92.172 252.317 92.1484 252.317 92.1366C252.215 91.3883 251.917 90.6804 251.452 90.0849C250.924 89.4556 250.257 88.9581 249.503 88.6317C248.75 88.3053 247.93 88.159 247.11 88.2044C246.658 88.256 246.201 88.2649 245.747 88.231C244.988 88.1188 244.348 87.6405 243.745 87.1741L238.692 83.2803C238.128 82.792 237.481 82.4081 236.782 82.1467C236.068 81.9282 235.212 82.002 234.684 82.5246C233.736 83.4574 234.338 85.0634 233.961 86.3298C233.63 87.428 232.57 88.1719 231.475 88.5409C230.38 88.9099 229.205 88.9926 228.078 89.2612C227.743 89.3148 227.43 89.4587 227.172 89.6775C226.881 90.0324 226.739 90.4865 226.776 90.9439C226.768 92.0658 227.038 93.1722 227.561 94.1647C227.774 94.5662 228.031 94.9765 228.258 95.3898L228.314 95.4931L228.388 95.6348C228.426 95.7145 228.464 95.7913 228.5 95.868L228.544 95.9684L228.612 96.1367C228.612 96.1721 228.639 96.2075 228.65 96.24C228.662 96.2725 228.692 96.3728 228.712 96.4378C228.831 96.821 228.842 97.2295 228.745 97.6186C228.571 98.2592 228.072 98.7522 227.629 99.2511C227.271 99.643 227.015 100.118 226.885 100.633C226.864 100.754 226.864 100.878 226.885 100.999C226.885 101.014 226.885 101.028 226.885 101.043C226.892 101.07 226.9 101.097 226.909 101.123C226.916 101.142 226.923 101.161 226.933 101.179C226.941 101.2 226.951 101.221 226.962 101.241C226.984 101.273 227.01 101.303 227.039 101.329L227.083 101.362C227.107 101.38 227.133 101.396 227.16 101.409L227.21 101.433L227.334 101.465H227.369C227.434 101.47 227.499 101.47 227.564 101.465H227.623C227.685 101.461 227.746 101.453 227.806 101.442H227.874C227.974 101.423 228.072 101.398 228.169 101.368C228.508 101.266 228.838 101.136 229.155 100.978C229.155 101.014 229.155 101.052 229.155 101.087C229.155 101.123 229.155 101.214 229.155 101.276C229.172 102.444 229.393 103.6 229.808 104.692C230.454 106.393 231.539 107.893 232.951 109.04C232.933 109.141 232.916 109.244 232.895 109.35C232.6 110.776 231.995 112.208 231.62 112.099C231.253 112.016 230.878 111.974 230.501 111.975H230.174C229.832 111.936 229.488 111.936 229.146 111.975C228.994 111.986 228.841 111.965 228.698 111.913C227.723 111.605 226.687 111.547 225.684 111.744C223.6 112.172 220.427 112.955 219.556 113.891C218.228 115.319 216.309 116.689 214.128 122.641C214.128 122.641 213.042 126.272 212.198 126.75C212.384 126.653 212.575 126.566 212.77 126.49C212.658 126.687 212.504 126.856 212.319 126.986C212.624 126.83 212.941 126.698 213.266 126.59C212.608 130.47 213.585 141.563 213.585 141.563C213.585 141.563 212.8 143.476 213.824 144.61C214.435 145.28 214.766 146.328 214.937 147.072L214.786 147.302C214.243 148.144 213.517 149.242 213.042 149.847C212.198 150.919 212.437 154.314 212.437 154.314C212.437 154.314 212.257 155.92 211.655 156.516C211.052 157.112 211.17 159.314 211.17 159.314L209.627 165.127C209.627 165.127 208.177 166.435 208.177 167.031C208.177 167.628 207.032 169.293 207.032 169.293C207.032 169.293 205.282 172.15 207.032 171.734C207.672 171.549 208.272 171.249 208.803 170.848V170.893C208.803 170.996 208.803 171.102 208.803 171.211C208.753 174.323 209.098 178.704 211.389 178.704C214.931 178.704 224.117 182.928 224.117 182.928C225.985 184.357 228.518 183.882 228.518 183.882C228.518 183.882 224.034 188.336 224.164 190.184C224.294 192.032 221.631 195.064 221.631 195.064L213.426 211.079C213.471 212.195 213.67 213.3 214.016 214.362L213.898 214.463C210.745 217.344 210.471 223.044 210.471 223.044L209.748 225.961L220.725 230.785C220.725 230.785 234.961 231.08 237.435 230.427C239.908 229.775 239.365 227.033 236.106 226.498C232.848 225.964 232.066 224.532 230.979 223.88C230.247 223.437 227.647 220.582 226.032 218.773C226.009 218.743 225.985 218.719 225.961 218.693L226.336 216.626C227.059 216.269 228.146 212.697 228.146 212.697C228.146 212.697 228.146 211.268 228.869 210.852C229.592 210.436 231.1 206.149 231.1 206.149C231.1 206.149 234.347 200.732 234.179 200.018C234.011 199.304 236.54 195.672 236.54 195.672C236.54 195.672 240.823 191.504 240.64 190.76C240.457 190.016 244.079 186.205 244.079 186.205C245.387 185.207 246.477 183.953 247.282 182.518L248.326 182.347C253.064 181.57 260.933 180.168 261.813 179.775C263.02 179.241 262.778 181.623 262.297 183.646C261.816 185.668 261.453 195.374 262.002 196.635C262.551 197.895 262.297 199.912 262.297 199.912L261.574 210.805L262.055 213.128C262.055 213.128 260.425 214.436 261.09 215.209C261.754 215.983 261.152 219.319 261.152 219.319C261.208 219.298 261.276 219.277 261.349 219.257C261.293 219.387 261.237 219.522 261.187 219.661C260.251 222.318 260.789 226.699 260.789 226.699V230.153C260.789 230.153 277.498 230.448 281.176 230.448C284.854 230.448 289.925 228.662 290.226 227.233C290.527 225.804 285.993 224.594 284.305 224.532ZM236.782 162.559L235.69 162.65C236.051 162.597 236.415 162.566 236.779 162.559H236.782ZM243.456 116.863C243.61 116.173 243.796 115.435 244.002 114.673L243.456 116.863ZM245.522 164.227C244.479 164.638 243.319 164.638 242.275 164.227C242.275 164.227 242.335 160.061 242.819 158.323C243.303 156.584 243.964 153.44 243.964 153.44C243.964 153.44 244.507 149.094 245.05 147.128C245.593 145.162 247.707 134.21 248.79 133.495C249.873 132.781 250.478 134.033 250.478 134.033C250.478 134.033 250.641 134.033 250.912 134C250.965 134.112 251.021 134.236 251.086 134.363C252.373 136.964 256.148 142.307 256.148 142.307C257.269 142.999 258.218 143.935 258.923 145.047C259.95 146.771 260.251 150.821 260.251 150.821C260.251 150.821 262.545 159.81 263.628 161.059C264.171 161.685 263.923 162.057 263.554 162.272C262.783 162.697 262.13 163.305 261.65 164.044C261.497 164.289 261.332 164.557 261.166 164.847C260.75 164.749 260.381 164.649 260.071 164.551C257.093 163.551 247.146 163.512 245.519 164.241L245.522 164.227Z" fill="url(#paint0_linear)"/>
<path d="M260.384 226.711V230.135C260.384 230.135 276.734 230.43 280.335 230.43C283.936 230.43 288.895 228.659 289.19 227.242C289.485 225.825 285.057 224.644 283.405 224.585C281.752 224.526 281.693 223.877 279.567 222.755C278.369 222.123 276.548 220.284 275.19 218.805C274.142 217.663 273.369 216.739 273.369 216.739C273.369 216.739 264.576 216.561 262.037 217.978C261.447 218.303 261.048 218.944 260.774 219.75C259.859 222.377 260.384 226.711 260.384 226.711Z" fill="#434175"/>
<path opacity="0.1" d="M260.774 219.741C262.619 219.1 273.413 218.855 275.19 218.814C274.142 217.671 273.369 216.747 273.369 216.747C273.369 216.747 264.576 216.57 262.037 217.987C261.453 218.3 261.048 218.941 260.774 219.741Z" fill="black"/>
<path d="M213.34 165.127L214.293 165.717L214.651 165.933L216.038 166.771C223.458 171.241 243.692 183.362 244.802 183.265C245.097 183.241 245.965 183.108 247.164 182.913L248.188 182.745C252.822 181.975 260.523 180.584 261.385 180.195C262.565 179.663 262.329 182.025 261.857 184.032C261.385 186.04 261.031 195.664 261.562 196.903C262.093 198.143 261.857 200.151 261.857 200.151L261.149 210.955L261.621 213.258C261.621 213.258 260.027 214.557 260.676 215.324C261.326 216.092 260.735 219.398 260.735 219.398C262.625 218.69 275.432 218.454 275.432 218.454C275.432 218.454 274.901 213.73 275.373 212.609C275.845 211.487 275.491 204.815 275.491 204.815C275.491 204.815 275.786 199.737 275.255 198.557C274.724 197.376 275.432 189.821 275.432 189.821C275.432 189.821 275.904 185.334 276.022 176.186C276.14 167.037 270.827 166.739 270.827 166.739C270.827 166.739 270.119 166.683 269.056 166.58C266.952 166.379 263.448 165.989 261.104 165.481C260.624 165.384 260.15 165.258 259.685 165.106C256.792 164.12 247.051 164.082 245.46 164.791C244.439 165.199 243.3 165.199 242.278 164.791L241.039 162.783L229.199 163.793L227.945 163.899L216.289 164.894L215.486 164.962L213.34 165.127Z" fill="#565387"/>
<path opacity="0.1" d="M260.797 174.196C264.236 175.873 267.518 169.927 269.062 166.574C266.958 166.373 263.454 165.983 261.11 165.475C259.555 168.061 257.5 172.587 260.797 174.196Z" fill="black"/>
<path d="M250.466 134.027C250.54 134.433 250.68 134.824 250.883 135.184C252.143 137.761 255.839 143.06 255.839 143.06C256.938 143.748 257.866 144.677 258.554 145.776C259.558 147.488 259.853 151.503 259.853 151.503C259.853 151.503 262.096 160.416 263.159 161.655C263.69 162.275 263.454 162.644 263.085 162.86C262.331 163.279 261.691 163.877 261.222 164.602C259.673 167.093 257.202 172.029 260.679 173.724C265.402 176.026 269.83 163.958 269.83 163.958C269.83 163.958 268.944 155.397 268.708 153.921C268.472 152.445 267.058 146.364 267.058 146.364C267.058 146.364 266.054 143.766 265.464 141.935C264.874 140.105 263.103 137.98 263.103 137.98C263.103 137.98 259.915 131.606 259.029 130.661C258.619 130.222 258.043 129.669 257.553 129.203C256.963 128.663 256.503 128.241 256.503 128.241C256.503 128.241 250.407 132.613 250.466 134.027Z" fill="#EE8E9E"/>
<path d="M210.456 226.002L221.2 230.785C221.2 230.785 235.129 231.08 237.55 230.43C239.97 229.781 239.439 227.065 236.251 226.534C233.063 226.002 232.296 224.585 231.233 223.936C230.516 223.499 227.972 220.668 226.392 218.873C225.631 218.008 225.094 217.397 225.094 217.397C225.094 217.397 223.027 211.906 217.304 213.146C216.258 213.374 215.294 213.885 214.518 214.622C211.433 217.477 211.165 223.13 211.165 223.13L210.456 226.002Z" fill="#434175"/>
<path opacity="0.1" d="M214.651 165.93L216.038 166.768C223.458 171.238 243.692 183.359 244.802 183.262C245.097 183.238 245.965 183.105 247.164 182.91L248.188 182.742L248.226 182.674C248.823 181.637 249.277 180.524 249.578 179.365C250.821 174.645 244.696 171.031 244.696 171.031L243.397 170.022C241.921 167.536 231.295 165.186 231.295 165.186L229.926 164.265L229.197 163.775L229.002 163.645L227.34 162.529L219.019 163.12L216.546 164.708L216.286 164.876L215.368 165.467L214.651 165.93Z" fill="black"/>
<path opacity="0.1" d="M214.509 214.601C216.767 222.415 226.206 219.865 226.206 219.865L226.384 218.873C225.622 218.008 225.085 217.397 225.085 217.397C225.085 217.397 223.019 211.906 217.295 213.146C216.251 213.368 215.288 213.871 214.509 214.601Z" fill="black"/>
<path d="M212.041 179.129C215.524 179.129 224.494 183.321 224.494 183.321C226.325 184.738 228.804 184.266 228.804 184.266C228.804 184.266 224.435 188.694 224.553 190.524C224.672 192.354 222.077 195.365 222.077 195.365L214.048 211.245C214.639 222.519 226.206 219.393 226.206 219.393L226.679 216.736C227.387 216.381 228.45 212.839 228.45 212.839C228.45 212.839 228.45 211.422 229.158 211.009C229.867 210.595 231.342 206.344 231.342 206.344C231.342 206.344 234.53 200.971 234.353 200.263C234.176 199.554 236.655 195.956 236.655 195.956C236.655 195.956 240.847 191.823 240.67 191.085C240.493 190.347 244.035 186.568 244.035 186.568C245.316 185.574 246.382 184.33 247.166 182.911C247.769 181.871 248.229 180.755 248.533 179.592C249.534 175.79 245.747 172.714 244.232 171.663C243.866 171.406 243.642 171.27 243.642 171.27L242.343 170.261C241.673 169.13 239.097 168.026 236.511 167.161C234.639 166.538 232.75 166.036 231.543 165.735C230.723 165.546 230.233 165.422 230.233 165.422L228.863 164.501L228.382 164.179L227.942 163.884L226.265 162.765L222.564 163.028L217.945 163.356L215.474 164.956L214.293 165.718L209.68 168.67C209.68 168.67 209.559 169.806 209.52 171.326C209.52 171.445 209.52 171.563 209.52 171.687C209.464 174.786 209.795 179.129 212.041 179.129Z" fill="#565387"/>
<path d="M229.808 113.011L231.047 117.439C231.047 117.439 233.231 125.055 233.468 125.587C233.704 126.118 239.43 131.491 239.666 131.609C239.902 131.727 243.019 133.495 243.019 133.495C243.019 133.495 243.267 123.753 243.019 120.922C242.999 120.3 243.05 119.677 243.173 119.066C243.548 116.846 244.501 113.589 245.292 111.08C245.953 108.981 246.499 107.405 246.499 107.405C246.499 107.405 232.688 106.814 233.161 108.172C233.338 108.686 233.282 109.542 233.108 110.404C232.812 111.818 232.222 113.241 231.862 113.129C231.502 113.048 231.135 113.008 230.767 113.008C230.271 112.993 229.808 113.011 229.808 113.011Z" fill="#EE8E9E"/>
<path opacity="0.1" d="M233.119 110.404C234.807 111.813 236.904 112.64 239.1 112.762C241.295 112.883 243.471 112.294 245.304 111.08C245.965 108.981 246.511 107.405 246.511 107.405C246.511 107.405 232.7 106.814 233.172 108.172C233.35 108.686 233.293 109.542 233.119 110.404Z" fill="black"/>
<path d="M249.879 102.212C249.88 103.295 249.707 104.372 249.368 105.4C249.283 105.666 249.185 105.927 249.073 106.183C248.278 108.066 246.936 109.667 245.221 110.78C243.506 111.892 241.497 112.464 239.453 112.422C237.41 112.379 235.426 111.725 233.758 110.542C232.091 109.36 230.816 107.705 230.1 105.79C229.694 104.706 229.479 103.561 229.462 102.404C229.462 102.342 229.462 102.277 229.462 102.215C229.439 100.859 229.686 99.5125 230.189 98.2532C230.692 96.9939 231.44 95.8474 232.391 94.8805C233.341 93.9135 234.475 93.1456 235.725 92.6213C236.976 92.0971 238.318 91.8271 239.674 91.8271C241.029 91.8271 242.372 92.0971 243.622 92.6213C244.872 93.1456 246.006 93.9135 246.956 94.8805C247.907 95.8474 248.655 96.9939 249.158 98.2532C249.661 99.5125 249.908 100.859 249.885 102.215L249.879 102.212Z" fill="#EE8E9E"/>
<path opacity="0.1" d="M229.808 113.011L231.047 117.439C231.047 117.439 233.231 125.055 233.468 125.587C233.704 126.118 239.43 131.491 239.666 131.609C239.902 131.727 243.019 133.495 243.019 133.495C243.019 133.495 243.267 123.753 243.019 120.922C242.999 120.3 243.05 119.677 243.173 119.066L242.37 122.339L242.429 128.893L242.901 129.247L241.839 130.841V129.661C241.839 129.661 238.06 126 237.47 124.465C236.88 122.93 234.755 120.149 234.755 120.149C234.755 120.149 232.334 116.081 232.275 115.372C232.231 114.82 231.213 113.542 230.767 113.011C230.271 112.993 229.808 113.011 229.808 113.011Z" fill="black"/>
<path opacity="0.1" d="M250.466 134.027C250.54 134.433 250.68 134.824 250.883 135.184C252.176 135.051 256.571 134.23 257.539 129.206C256.948 128.666 256.488 128.244 256.488 128.244C256.488 128.244 250.407 132.613 250.466 134.027Z" fill="black"/>
<path opacity="0.1" d="M209.512 171.701C210.692 170.857 211.838 169.709 212.514 169.39C213.517 168.918 215.052 167.382 215.052 167.382C215.052 167.382 215.442 167.117 216.038 166.768C217.133 166.125 218.931 165.195 220.306 165.08C221.537 164.977 225.619 164.714 228.866 164.513L233.069 164.253C233.069 164.253 236.906 162.895 238.559 163.781C239.743 164.374 240.991 164.83 242.278 165.139C242.278 165.139 242.278 165.009 242.278 164.788L241.039 162.78L227.945 163.896L226.265 162.765L217.945 163.356L215.474 164.956L213.343 165.139L214.296 165.729L209.683 168.681C209.683 168.681 209.538 170.001 209.512 171.701Z" fill="black"/>
<path d="M207.8 172.212C208.425 172.025 209.012 171.725 209.529 171.326C210.71 170.485 211.846 169.337 212.522 169.021C213.526 168.549 215.061 167.013 215.061 167.013C215.061 167.013 218.19 164.888 220.315 164.711C220.905 164.664 222.104 164.578 223.562 164.484C225.02 164.389 226.809 164.274 228.379 164.188L230.882 164.032L233.063 163.896C233.063 163.896 236.9 162.538 238.553 163.424C239.737 164.017 240.985 164.472 242.273 164.782C242.273 164.782 242.332 160.649 242.804 158.937C243.276 157.224 243.925 154.098 243.925 154.098C243.925 154.098 244.457 149.788 244.988 147.84C245.519 145.891 247.583 135.028 248.645 134.319C249.708 133.611 250.298 134.85 250.298 134.85C250.298 134.85 257.382 134.732 257.5 126.942C257.5 126.942 254.194 123.635 253.958 122.809C253.722 121.982 250.593 118.912 250.593 118.912C250.593 118.912 248.822 115.606 246.815 115.547C245.867 115.492 244.916 115.522 243.973 115.635L242.273 122.573L242.332 129.126L242.804 129.481L241.741 131.075V129.894C241.741 129.894 237.963 126.233 237.373 124.698C236.782 123.163 234.657 120.382 234.657 120.382C234.657 120.382 232.237 116.314 232.178 115.606C232.119 114.897 230.466 112.999 230.466 112.999C230.132 112.96 229.796 112.96 229.462 112.999C229.313 113.01 229.163 112.989 229.022 112.937C228.069 112.631 227.053 112.574 226.071 112.772C224.031 113.194 220.926 113.97 220.076 114.897C218.777 116.314 216.888 117.672 214.763 123.576L226.212 127.709L225.215 129.575L216.103 146.898C216.103 146.898 215.808 147.391 215.391 148.034C214.86 148.87 214.149 149.959 213.682 150.559C212.856 151.621 213.092 154.987 213.092 154.987C213.092 154.987 212.915 156.581 212.325 157.171C211.734 157.762 211.852 159.946 211.852 159.946L210.317 165.673C210.317 165.673 208.901 166.972 208.901 167.563C208.901 168.153 207.779 169.806 207.779 169.806C207.779 169.806 206.079 172.637 207.8 172.212Z" fill="#434175"/>
<path opacity="0.1" d="M268.233 176.475C268.233 176.475 264.517 177.712 263.51 179.483C262.503 181.254 268.233 176.475 268.233 176.475Z" fill="black"/>
<path opacity="0.1" d="M266.347 172.578C266.229 172.755 261.252 177.747 261.565 178.952C261.878 180.156 266.347 172.578 266.347 172.578Z" fill="black"/>
<path opacity="0.1" d="M239.017 176.121C239.017 176.121 233.479 178.736 232.995 179.888C232.511 181.039 239.017 176.121 239.017 176.121Z" fill="black"/>
<path opacity="0.1" d="M238.663 179.483C238.663 179.483 233.645 181.609 232.972 182.14C232.299 182.671 238.663 179.483 238.663 179.483Z" fill="black"/>
<path opacity="0.1" d="M236.36 184.02C236.36 184.02 234.144 185.674 232.919 184.375C231.694 183.076 236.36 184.02 236.36 184.02Z" fill="black"/>
<path opacity="0.1" d="M244.696 140.935C244.578 141.112 237.199 154.396 235.25 155.4C233.302 156.404 244.696 140.935 244.696 140.935Z" fill="black"/>
<path opacity="0.1" d="M244.33 145.953C244.33 146.248 237.128 161.655 235.947 161.833C234.766 162.01 244.33 145.953 244.33 145.953Z" fill="black"/>
<path opacity="0.1" d="M216.95 155.869C216.95 155.869 213.473 163.3 212.109 163.722C210.745 164.144 216.95 155.869 216.95 155.869Z" fill="black"/>
<path opacity="0.1" d="M216.36 152.566C216.36 152.566 215.161 155.161 214.432 155.161C213.703 155.161 216.36 152.566 216.36 152.566Z" fill="black"/>
<path opacity="0.1" d="M249.879 102.212C249.88 103.295 249.707 104.372 249.368 105.4C249.283 105.666 249.185 105.927 249.073 106.183C248.551 106.102 248.059 105.885 247.648 105.554C247.209 105.257 246.843 104.866 246.576 104.408C246.375 103.921 246.2 103.424 246.054 102.918C245.818 102.346 245.434 101.848 244.942 101.475C244.449 101.102 243.866 100.867 243.253 100.795C243.592 101.385 243.052 102.168 242.388 102.271C241.724 102.374 241.077 101.976 240.617 101.483C240.156 100.99 239.829 100.391 239.374 99.8976C238.919 99.4046 238.27 99.012 237.603 99.1094C237.013 99.198 236.561 99.6467 236.068 99.9803C235.575 100.314 234.887 100.538 234.415 100.181C234.149 99.9832 234.02 99.6467 233.766 99.4312C233.113 98.8851 232.098 99.4489 231.617 100.154C230.876 101.247 230.436 101.908 229.462 102.401C229.462 102.339 229.462 102.274 229.462 102.212C229.439 100.856 229.686 99.5095 230.189 98.2502C230.692 96.991 231.44 95.8445 232.391 94.8775C233.341 93.9106 234.475 93.1426 235.725 92.6184C236.976 92.0942 238.318 91.8242 239.674 91.8242C241.029 91.8242 242.372 92.0942 243.622 92.6184C244.872 93.1426 246.006 93.9106 246.956 94.8775C247.907 95.8445 248.655 96.991 249.158 98.2502C249.661 99.5095 249.908 100.856 249.885 102.212H249.879Z" fill="black"/>
<path d="M231.617 99.8592C232.098 99.1507 233.113 98.5869 233.766 99.136C234.02 99.3485 234.149 99.6851 234.415 99.8858C234.887 100.243 235.578 100.019 236.068 99.6851C236.558 99.3515 237.016 98.9028 237.603 98.8142C238.267 98.7109 238.913 99.1094 239.374 99.6024C239.834 100.095 240.159 100.695 240.617 101.188C241.074 101.681 241.721 102.073 242.388 101.973C243.055 101.873 243.592 101.087 243.252 100.497C243.866 100.569 244.449 100.804 244.941 101.177C245.433 101.55 245.816 102.048 246.051 102.619C246.199 103.125 246.373 103.623 246.573 104.11C246.841 104.567 247.209 104.957 247.648 105.253C248.188 105.651 248.846 105.985 249.507 105.87C250.168 105.755 250.729 104.984 250.422 104.394C250.632 104.715 251.086 104.267 251.154 103.889C251.304 103.059 251.258 102.206 251.018 101.397C250.694 100.299 250.009 99.2127 250.272 98.0968C250.481 97.2112 251.234 96.5824 251.691 95.8001C252.503 94.4126 252.282 92.5528 251.302 91.2775C250.789 90.6553 250.137 90.1625 249.399 89.8389C248.66 89.5153 247.856 89.37 247.051 89.4147C246.608 89.4638 246.162 89.4717 245.717 89.4383C244.976 89.3291 244.348 88.8479 243.757 88.3904L238.807 84.5349C238.258 84.0492 237.625 83.6671 236.939 83.4072C236.242 83.1917 235.404 83.2655 234.873 83.7821C233.946 84.7091 234.533 86.3032 234.161 87.5579C233.84 88.6442 232.803 89.3823 231.732 89.7483C230.661 90.1144 229.512 90.197 228.408 90.4627C228.081 90.5171 227.775 90.66 227.523 90.876C227.237 91.23 227.099 91.6803 227.136 92.1336C227.129 93.244 227.392 94.3394 227.904 95.3248C228.476 96.4259 229.38 97.5566 229.064 98.7581C228.892 99.3928 228.403 99.8799 227.972 100.376C227.039 101.45 226.723 103.033 228.482 102.484C230.185 101.952 230.661 101.264 231.617 99.8592Z" fill="#434175"/>
<g opacity="0.1">
<path opacity="0.1" d="M251.151 102.735C251.08 103.112 250.629 103.561 250.416 103.239C250.711 103.83 250.162 104.594 249.501 104.715C248.84 104.836 248.185 104.494 247.642 104.098C247.203 103.802 246.837 103.41 246.57 102.953C246.322 102.49 246.243 101.952 246.048 101.462C245.812 100.891 245.428 100.394 244.935 100.021C244.443 99.6475 243.86 99.4125 243.247 99.3397C243.589 99.9301 243.046 100.715 242.382 100.816C241.718 100.916 241.071 100.521 240.611 100.028C240.15 99.5345 239.823 98.9382 239.368 98.4423C238.914 97.9463 238.264 97.5566 237.597 97.6541C237.007 97.7456 236.555 98.1913 236.062 98.5249C235.569 98.8585 234.881 99.0858 234.409 98.7286C234.144 98.5279 234.017 98.1913 233.763 97.9788C233.108 97.4297 232.092 97.9935 231.611 98.6991C230.658 100.104 230.182 100.798 228.488 101.332C227.933 101.507 227.585 101.468 227.396 101.3C227.027 102.153 227.195 102.903 228.488 102.495C230.182 101.961 230.658 101.27 231.611 99.8652C232.092 99.1567 233.108 98.5928 233.763 99.1419C234.017 99.3545 234.144 99.691 234.409 99.8917C234.884 100.249 235.572 100.025 236.062 99.691C236.552 99.3574 237.01 98.9087 237.597 98.8201C238.261 98.7168 238.908 99.1153 239.368 99.6083C239.829 100.101 240.153 100.701 240.611 101.194C241.068 101.687 241.715 102.079 242.382 101.979C243.049 101.878 243.589 101.093 243.247 100.503C243.86 100.574 244.444 100.809 244.936 101.182C245.429 101.555 245.813 102.054 246.048 102.625C246.194 103.132 246.369 103.629 246.57 104.116C246.838 104.572 247.204 104.963 247.642 105.259C248.185 105.657 248.84 105.991 249.501 105.876C250.162 105.76 250.723 104.99 250.416 104.4C250.629 104.721 251.08 104.273 251.151 103.895C251.243 103.385 251.261 102.865 251.204 102.351C251.195 102.479 251.177 102.607 251.151 102.735Z" fill="black"/>
<path opacity="0.1" d="M229.052 97.6452C229.052 97.6275 229.052 97.6157 229.067 97.598C229.388 96.3994 228.476 95.2688 227.907 94.1676C227.505 93.3906 227.257 92.5438 227.175 91.6731C227.153 91.8276 227.141 91.9834 227.139 92.1395C227.133 93.2497 227.396 94.3448 227.907 95.3307C228.308 96.0835 228.854 96.8511 229.052 97.6452Z" fill="black"/>
<path opacity="0.1" d="M251.685 94.6459C251.228 95.4282 250.475 96.0599 250.266 96.9426C250.182 97.3148 250.182 97.701 250.266 98.0732C250.484 97.2083 251.222 96.5824 251.674 95.809C252.103 95.0538 252.263 94.1755 252.128 93.3174C252.07 93.7851 251.919 94.2366 251.685 94.6459Z" fill="black"/>
</g>
<path opacity="0.1" d="M215.403 148.034C215.481 148.361 215.541 148.691 215.583 149.023C215.583 149.023 220.247 159.946 220.837 160.593C221.017 160.793 221.702 161.774 222.564 163.04L223.553 164.498C225.324 167.155 227.328 170.157 227.328 170.157L231.708 173.983C231.708 173.983 241.21 174.742 244.23 171.66C243.863 171.403 243.639 171.267 243.639 171.267L242.34 170.258C241.67 169.127 239.094 168.023 236.508 167.158C234.117 167.176 232.16 167.371 232.16 167.371L231.54 165.732L230.891 164.023L227.576 155.338C227.576 155.338 225.445 144.359 224.736 143.825C224.028 143.29 224.208 141.64 224.208 141.64C224.208 141.64 225.504 136.976 225.032 136.326C224.559 135.677 225.799 130.898 225.799 130.898C225.678 130.43 225.487 129.983 225.232 129.572L216.12 146.895C216.12 146.895 215.811 147.391 215.403 148.034Z" fill="black"/>
<path d="M225.911 130.546C225.911 130.546 224.672 135.326 225.144 135.975C225.616 136.625 224.317 141.289 224.317 141.289C224.317 141.289 224.143 142.942 224.849 143.473C225.554 144.005 227.688 154.987 227.688 154.987L232.26 167.031C232.26 167.031 246.57 165.614 245.097 170.101C243.624 174.589 231.815 173.644 231.815 173.644L227.446 169.806C227.446 169.806 221.543 160.891 220.952 160.241C220.362 159.592 215.698 148.672 215.698 148.672C215.698 148.672 215.462 146.488 214.459 145.366C213.455 144.244 214.223 142.346 214.223 142.346C214.223 142.346 212.983 128.069 214.282 126.357C215.58 124.645 224.553 125.41 225.911 130.546Z" fill="#EE8E9E"/>
<path opacity="0.1" d="M218.594 121.572L214.875 123.815C214.875 123.815 213.812 127.417 212.986 127.889C212.986 127.889 220.424 123.756 226.029 133.259C226.029 133.259 225.852 132.022 226.62 131.432C227.387 130.841 227.21 128.303 227.21 128.303C227.414 127.902 227.592 127.487 227.741 127.063C228.273 125.764 225.51 118.325 218.594 121.572Z" fill="black"/>
<path d="M218.476 121.336L214.757 123.579C214.757 123.579 213.694 127.181 212.868 127.653C212.868 127.653 220.306 123.52 225.911 133.023C225.911 133.023 225.734 131.786 226.502 131.196C227.269 130.605 227.092 128.067 227.092 128.067C227.296 127.665 227.474 127.251 227.623 126.827C228.166 125.528 225.38 118.088 218.476 121.336Z" fill="#434175"/>
<path d="M185.331 224.721C191.454 224.721 196.418 219.451 196.418 212.951C196.418 206.451 191.454 201.181 185.331 201.181C179.208 201.181 174.245 206.451 174.245 212.951C174.245 219.451 179.208 224.721 185.331 224.721Z" fill="#FBD56F"/>
<path opacity="0.1" d="M185.331 224.721C191.454 224.721 196.418 219.451 196.418 212.951C196.418 206.451 191.454 201.181 185.331 201.181C179.208 201.181 174.245 206.451 174.245 212.951C174.245 219.451 179.208 224.721 185.331 224.721Z" fill="black"/>
<path d="M187.244 224.721C193.367 224.721 198.331 219.569 198.331 213.214C198.331 206.858 193.367 201.706 187.244 201.706C181.121 201.706 176.157 206.858 176.157 213.214C176.157 219.569 181.121 224.721 187.244 224.721Z" fill="#FBD56F"/>
<path d="M26.6066 219.419C34.169 219.419 40.2995 218.383 40.2995 217.105C40.2995 215.826 34.169 214.79 26.6066 214.79C19.0442 214.79 12.9137 215.826 12.9137 217.105C12.9137 218.383 19.0442 219.419 26.6066 219.419Z" fill="#6C63FF"/>
<path d="M32.268 213.317C32.8583 212.771 33.4044 212.136 33.5756 211.345C33.7468 210.554 33.4103 209.627 32.6635 209.341C31.8252 209.019 30.9279 209.6 30.249 210.188C29.5701 210.775 28.7938 211.442 27.9054 211.318C28.3624 210.904 28.7043 210.379 28.8978 209.793C29.0913 209.207 29.1297 208.582 29.0093 207.977C28.9742 207.728 28.8722 207.493 28.7141 207.298C28.2507 206.802 27.4065 207.003 26.8487 207.407C25.0776 208.653 24.5847 211.059 24.5759 213.223C24.3958 212.44 24.5463 211.628 24.5434 210.825C24.5404 210.023 24.3191 209.137 23.6579 208.706C23.2364 208.48 22.7631 208.369 22.2853 208.384C21.4884 208.355 20.6029 208.434 20.0598 209.016C19.3838 209.742 19.558 210.955 20.1454 211.752C20.7327 212.55 21.6212 213.045 22.4506 213.598C23.1101 213.991 23.6729 214.528 24.0977 215.168C24.1483 215.262 24.1889 215.361 24.2187 215.463H29.21C30.3214 214.889 31.3501 214.167 32.268 213.317Z" fill="#6C63FF"/>
<path d="M125.249 88.4229L136.442 82.8139L140.575 86.6014L141.558 89.3085L142.591 93.8576L141.682 95.8503L134.524 97.1551C134.524 97.1551 130.71 96.9337 130.12 97.2289C129.529 97.5242 127.121 98.0349 127.121 98.0349L125.249 93.4266V88.4229Z" fill="#FBD56F"/>
<defs>
<linearGradient id="paint0_linear" x1="248.244" y1="230.853" x2="248.244" y2="82.0552" gradientUnits="userSpaceOnUse">
<stop stop-color="#808080" stop-opacity="0.25"/>
<stop offset="0.54" stop-color="#808080" stop-opacity="0.12"/>
<stop offset="1" stop-color="#808080" stop-opacity="0.1"/>
</linearGradient>
</defs>
</svg>
