<svg width="1920" height="794" viewBox="0 0 1920 794" fill="none" xmlns="http://www.w3.org/2000/svg">
<path d="M0 574C0 574 148.039 475.11 398.5 664C594.5 794 872 600 1122 430.5C1291 341 1479.5 516.5 1678.5 420.5C1830.5 354 1920 445 1920 445V794H0V574Z" fill="#F88383"/>
<path d="M0 710.331C0 710.331 65 609.644 301 714.971C602.5 824.011 539 490.544 838.5 504C1010 511.705 1138 649.332 1269.5 485.541C1476 276.279 1621.5 455.414 1723.5 475.414C1796 489.63 1920 410.374 1920 410.374V793.914H0V710.331Z" fill="#031A2A"/>
<ellipse opacity="0.1" cx="1208.03" cy="449" rx="12" ry="4" fill="black"/>
<path d="M1196.29 394.252C1196.29 394.252 1207.74 422.841 1245.34 420.356C1245.34 420.356 1269.51 416.54 1271.22 386.121C1271.48 382.012 1270.91 377.893 1269.54 374.009C1269.54 374.009 1261.64 350.109 1270.18 328.192C1270.18 328.192 1273.78 314.584 1290.34 304.355C1290.34 304.355 1308.7 293.875 1313.02 278.948C1313.02 278.948 1315.79 259.358 1305.11 248.34C1305.11 248.34 1284.2 232.185 1294.27 212.495C1294.27 212.495 1296.13 209.627 1296.42 209.238C1299.67 205.557 1316.3 182.84 1318.93 172.34C1318.93 172.34 1326.88 148.372 1308.5 141.172C1308.5 141.172 1289.13 128.471 1267.97 143.453C1267.97 143.453 1233.04 165.762 1231.35 193.662C1230.78 203.163 1240.74 211.333 1235.1 231.552C1235.1 231.552 1231.15 249.64 1219.17 260.29C1219.17 260.29 1199.02 271.019 1192.5 297.032C1192.5 297.032 1187.89 310.823 1206.28 324.725C1222.99 337.35 1208.76 356.879 1201.2 361.102C1189.51 369.399 1194.91 391.568 1196.29 394.252Z" fill="#8DDBAC"/>
<path opacity="0.05" d="M1275.26 176.998C1275.26 176.998 1253.8 188.063 1261.63 235.452C1262.33 235.977 1273.05 268.759 1249.58 291.823C1247.86 297.153 1225.16 303.922 1237.53 348.194C1236.75 347.059 1257.2 395.804 1207.46 449.334" stroke="black"/>
<path d="M1230.58 419.658L1230.45 418.307L1229.58 419.475C1229.39 419.437 1229.18 419.398 1228.99 419.357C1250.13 378.93 1236.9 347.277 1237.53 348.194C1225.16 303.921 1247.86 297.153 1249.58 291.824C1273.05 268.756 1262.33 235.978 1261.63 235.453C1253.8 188.061 1275.29 176.87 1275.29 176.87C1275.29 176.87 1295.89 155.766 1315.54 145.857C1324.5 155.554 1318.93 172.344 1318.93 172.344C1316.3 182.843 1299.67 205.563 1296.42 209.24C1296.13 209.63 1294.27 212.498 1294.27 212.498C1284.2 232.188 1305.11 248.343 1305.11 248.343C1315.79 259.358 1313.02 278.95 1313.02 278.95C1308.7 293.88 1290.34 304.357 1290.34 304.357C1273.77 314.587 1270.18 328.194 1270.18 328.194C1261.65 350.111 1269.54 374.011 1269.54 374.011C1270.91 377.894 1271.48 382.014 1271.23 386.123C1269.51 416.542 1245.35 420.359 1245.35 420.359C1240.41 420.715 1235.46 420.48 1230.58 419.658Z" fill="url(#paint0_linear)"/>
<ellipse opacity="0.1" cx="1162" cy="454" rx="16" ry="5" fill="black"/>
<g filter="url(#filter0_d)">
<ellipse cx="1059.56" cy="89.7054" rx="20.4365" ry="28.0408" transform="rotate(-22.3484 1059.56 89.7054)" fill="#DDDDDD"/>
<path d="M1097.49 116.834H1064.22C1064.22 116.834 1067.55 115.884 1067.55 109.23C1067.55 102.576 1064.22 101.151 1064.22 101.151H1097.49V116.834Z" fill="#C8C8C8"/>
<path d="M1097.49 101.151H1064.22C1064.22 101.151 1067.55 100.2 1067.55 93.5462C1067.55 86.8924 1064.22 85.4666 1064.22 85.4666H1097.49V101.151Z" fill="#DDDDDD"/>
<path d="M1052.81 62.6537H1244.82C1244.82 62.6537 1287.12 80.714 1281.42 182.421C1279.61 214.689 1260.51 232.325 1260.51 260.365C1260.51 288.406 1292.35 325.002 1292.35 325.002H1101.29C1101.29 325.002 1067.55 328.804 1067.55 260.365C1067.55 228.047 1084.42 218.067 1087.51 179.57C1097.49 55.0495 1052.81 62.6537 1052.81 62.6537Z" fill="#FBFBFB"/>
<rect x="1105.09" y="94.972" width="141.63" height="7.6043" rx="3.80215" fill="url(#paint1_linear)"/>
<rect x="1115.6" y="113.317" width="141.63" height="7.6043" rx="3.80215" fill="url(#paint2_linear)"/>
<rect x="1111.8" y="132.328" width="141.63" height="7.6043" rx="3.80215" fill="url(#paint3_linear)"/>
<path d="M1189.19 186.005C1190.44 186.091 1191.52 186.178 1192.44 186.264C1193.37 186.351 1194.09 186.429 1194.6 186.498L1195.3 194.14C1195.26 194.14 1195.08 194.122 1194.75 194.088C1194.44 194.036 1194.07 193.992 1193.63 193.958C1193.2 193.906 1192.76 193.863 1192.31 193.828C1191.86 193.776 1191.48 193.75 1191.19 193.75C1190.83 193.75 1190.35 193.785 1189.76 193.854C1189.19 193.906 1188.62 194.027 1188.05 194.218C1187.49 194.391 1187.01 194.651 1186.62 194.997C1186.22 195.327 1186.02 195.769 1186.02 196.323C1186.02 196.999 1186.23 197.614 1186.64 198.168C1187.08 198.706 1187.61 199.243 1188.25 199.78C1188.89 200.3 1189.59 200.846 1190.33 201.417C1191.08 201.972 1191.77 202.596 1192.41 203.289C1193.05 203.982 1193.58 204.77 1194 205.654C1194.43 206.52 1194.65 207.525 1194.65 208.669C1194.65 209.639 1194.45 210.549 1194.05 211.398C1193.65 212.23 1193.1 213.009 1192.41 213.737C1191.72 214.448 1190.91 215.097 1189.99 215.687C1189.09 216.258 1188.14 216.761 1187.14 217.194C1187.12 217.489 1187.08 217.922 1187.03 218.494C1187 219.065 1186.95 219.706 1186.9 220.417C1186.85 221.11 1186.8 221.829 1186.75 222.574C1186.69 223.319 1186.65 224.012 1186.62 224.653L1184.56 224.602C1184.34 224.602 1183.97 224.61 1183.47 224.628C1182.99 224.662 1182.44 224.697 1181.83 224.731C1181.24 224.783 1180.64 224.818 1180.01 224.835C1179.41 224.87 1178.86 224.887 1178.38 224.887L1178.66 219.923L1176.61 220.001C1176 220.036 1175.34 220.07 1174.63 220.105C1173.92 220.122 1173.24 220.122 1172.58 220.105C1172.84 218.753 1173.13 217.445 1173.44 216.18C1173.75 214.898 1174.05 213.581 1174.35 212.23C1175.51 212.126 1176.62 211.952 1177.67 211.71C1178.75 211.45 1179.69 211.138 1180.51 210.774C1181.34 210.393 1182 209.968 1182.48 209.501C1182.97 209.033 1183.21 208.539 1183.21 208.019C1183.21 207.707 1183.14 207.378 1183 207.031C1182.88 206.668 1182.62 206.26 1182.22 205.81C1181.82 205.359 1181.25 204.848 1180.51 204.276C1179.78 203.687 1178.8 203.011 1177.57 202.249C1176.05 201.313 1174.95 200.3 1174.3 199.208C1173.64 198.116 1173.31 196.921 1173.31 195.621C1173.31 194.755 1173.54 193.88 1174.01 192.996C1174.48 192.095 1175.08 191.272 1175.8 190.527C1176.55 189.765 1177.38 189.115 1178.3 188.578C1179.23 188.04 1180.17 187.685 1181.11 187.512L1181.91 182.548C1181.95 182.322 1181.96 182.132 1181.96 181.976C1181.98 181.82 1182 181.699 1182.02 181.612C1182.03 181.508 1182.07 181.43 1182.12 181.378C1182.17 181.326 1182.27 181.291 1182.41 181.274C1183.62 181.187 1184.87 181.092 1186.17 180.988C1187.49 180.867 1188.77 180.711 1190.02 180.52C1190.12 180.52 1190.19 180.538 1190.2 180.572C1190.24 180.607 1190.25 180.65 1190.25 180.702C1190.25 180.737 1190.22 180.936 1190.15 181.3C1190.08 181.647 1189.99 182.08 1189.86 182.6C1189.76 183.119 1189.65 183.683 1189.53 184.289C1189.41 184.896 1189.29 185.467 1189.19 186.005Z" fill="#EAEAEA"/>
<path fill-rule="evenodd" clip-rule="evenodd" d="M1101.3 325.002C1110.18 324.01 1119.13 315.989 1123.23 304.306C1128.43 289.512 1123.9 274.449 1113.12 270.662C1111.95 270.253 1110.76 269.992 1109.56 269.871H1290.92C1290.92 269.871 1304.23 274.624 1304.23 298.387C1304.23 322.15 1290.92 325.002 1290.92 325.002H1101.3ZM1097.63 325.002C1096.97 324.926 1096.32 324.809 1095.68 324.648L1095.59 325.002H1097.63Z" fill="#DDDDDD"/>
</g>
<path d="M1137.38 412.158C1137.38 412.158 1136.61 412.378 1136.14 412.475C1132.04 413.341 1090.63 420.859 1073.3 379.956C1073.3 379.956 1065.19 359.096 1074.19 340.798C1074.1 341.585 1082.43 317.582 1057.41 316.34C1057.41 316.34 1006.56 315.006 1008.41 260.197C1008.43 260.213 1008.4 260.308 1008.41 260.197C1008.43 260.216 1008.41 251.143 1015.83 226.588C1015.83 226.59 1022.17 207.441 1002.79 190.595C1003 190.141 977.095 172.76 978.972 145.689C979.495 125.247 997.143 115.189 994.076 96.8547C994.864 96.9467 991.732 79.9834 1015.79 73.5279C1021.92 72.0257 1033.41 74.3039 1041.66 93.9379C1041.76 93.9913 1043.42 111.157 1066.51 115.221C1066.84 115.1 1100.5 125.765 1075.43 164.27C1075.39 164.266 1061.25 183.361 1074.86 198.034C1089.81 212.028 1116.62 207.645 1125.97 234.195C1126.16 233.787 1138.44 262.205 1118.59 294.386C1114.22 309.703 1127.14 315.136 1135.52 315.335C1135.52 315.335 1162.52 315.398 1169.99 355.468C1171.75 391.664 1143.18 410.11 1137.38 412.158L1137.38 412.158Z" fill="#8DDBAC"/>
<path opacity="0.05" d="M1039.7 189.644C1039.7 189.625 1073.02 219.196 1067.5 251.04C1067.43 251.073 1061.12 303.516 1099.8 322.378C1099.85 322.35 1147.31 351.201 1138.29 411.501C1138.34 411.597 1132.36 435.944 1162.25 454.164" stroke="black"/>
<path d="M1138.29 411.501C1147.31 351.2 1099.85 322.349 1099.8 322.378C1061.12 303.514 1067.43 251.072 1067.5 251.04C1073.02 219.195 1039.7 189.626 1039.7 189.643L1039.68 189.646L1039.7 189.643C1016.12 163.088 1023.92 125.333 1023.92 125.333C1023.92 125.333 1026.01 99.0322 1035.79 83.2382C1038.2 86.5828 1040.21 90.2055 1041.76 94.0284C1041.86 94.0823 1043.52 111.25 1066.61 115.317C1066.94 115.193 1100.61 125.867 1075.53 164.373C1075.49 164.369 1061.34 183.464 1074.95 198.141C1089.91 212.138 1116.72 207.758 1126.07 234.313C1126.26 233.906 1138.54 262.329 1118.68 294.511C1114.3 309.831 1127.23 315.265 1135.61 315.464C1135.61 315.464 1162.61 315.531 1170.08 355.606C1171.62 387.302 1149.91 405.386 1140.58 410.766C1139.82 410.318 1139.4 410.032 1139.4 410.032L1139.96 411.12C1139.29 411.487 1138.7 411.78 1138.2 411.999C1138.26 411.681 1138.29 411.509 1138.29 411.501ZM1039.67 189.644L1039.68 189.643L1039.67 189.644Z" fill="url(#paint4_linear)"/>
<defs>
<filter id="filter0_d" x="970" y="3.05176e-05" width="394.23" height="389.04" filterUnits="userSpaceOnUse" color-interpolation-filters="sRGB">
<feFlood flood-opacity="0" result="BackgroundImageFix"/>
<feColorMatrix in="SourceAlpha" type="matrix" values="0 0 0 0 0 0 0 0 0 0 0 0 0 0 0 0 0 0 127 0"/>
<feOffset dy="4"/>
<feGaussianBlur stdDeviation="30"/>
<feColorMatrix type="matrix" values="0 0 0 0 0.552941 0 0 0 0 0.858824 0 0 0 0 0.67451 0 0 0 0.22 0"/>
<feBlend mode="normal" in2="BackgroundImageFix" result="effect1_dropShadow"/>
<feBlend mode="normal" in="SourceGraphic" in2="effect1_dropShadow" result="shape"/>
</filter>
<linearGradient id="paint0_linear" x1="1290.18" y1="277.253" x2="1260.69" y2="279.022" gradientUnits="userSpaceOnUse">
<stop stop-color="#8DDBAC" stop-opacity="0"/>
<stop offset="1" stop-color="#7DCC9E" stop-opacity="0.741"/>
</linearGradient>
<linearGradient id="paint1_linear" x1="1105.09" y1="97.5067" x2="1246.72" y2="97.5067" gradientUnits="userSpaceOnUse">
<stop stop-color="#C4C4C4"/>
<stop offset="0.546961" stop-color="#C4C4C4" stop-opacity="0"/>
</linearGradient>
<linearGradient id="paint2_linear" x1="1115.6" y1="115.852" x2="1257.23" y2="115.852" gradientUnits="userSpaceOnUse">
<stop stop-color="#C4C4C4"/>
<stop offset="0.773481" stop-color="#C4C4C4" stop-opacity="0"/>
</linearGradient>
<linearGradient id="paint3_linear" x1="1111.8" y1="134.862" x2="1253.43" y2="134.862" gradientUnits="userSpaceOnUse">
<stop stop-color="#C4C4C4"/>
<stop offset="0.519337" stop-color="#C4C4C4" stop-opacity="0"/>
</linearGradient>
<linearGradient id="paint4_linear" x1="1110.02" y1="235.156" x2="1053.59" y2="244.107" gradientUnits="userSpaceOnUse">
<stop stop-color="#8DDBAC" stop-opacity="0"/>
<stop offset="1" stop-color="#79CF9C"/>
</linearGradient>
</defs>
</svg>
